<mxfile host="Electron" agent="Mozilla/5.0 (X11; Linux x86_64) AppleWebKit/537.36 (KHTML, like Gecko) draw.io/26.0.16 Chrome/132.0.6834.196 Electron/34.2.0 Safari/537.36" version="26.0.16">
  <diagram name="Page-1" id="F-MheE8p6o78B45Rod74">
    <mxGraphModel dx="1187" dy="665" grid="1" gridSize="10" guides="1" tooltips="1" connect="1" arrows="1" fold="1" page="1" pageScale="1" pageWidth="850" pageHeight="1100" math="0" shadow="0">
      <root>
        <mxCell id="0" />
        <mxCell id="1" parent="0" />
        <mxCell id="kvSg3Rq4vL2DQ_oXKdCI-1" value="SignalRHub/Server" style="ellipse;whiteSpace=wrap;html=1;aspect=fixed;" parent="1" vertex="1">
          <mxGeometry x="350" y="280" width="150" height="150" as="geometry" />
        </mxCell>
        <mxCell id="kvSg3Rq4vL2DQ_oXKdCI-4" style="edgeStyle=orthogonalEdgeStyle;rounded=0;orthogonalLoop=1;jettySize=auto;html=1;" parent="1" source="kvSg3Rq4vL2DQ_oXKdCI-2" target="kvSg3Rq4vL2DQ_oXKdCI-1" edge="1">
          <mxGeometry relative="1" as="geometry" />
        </mxCell>
        <mxCell id="kvSg3Rq4vL2DQ_oXKdCI-2" value="Client1" style="rounded=0;whiteSpace=wrap;html=1;" parent="1" vertex="1">
          <mxGeometry x="690" y="330" width="130" height="50" as="geometry" />
        </mxCell>
        <mxCell id="kvSg3Rq4vL2DQ_oXKdCI-5" value="Create Game" style="text;html=1;align=center;verticalAlign=middle;resizable=0;points=[];autosize=1;strokeColor=none;fillColor=none;" parent="1" vertex="1">
          <mxGeometry x="540" y="318" width="100" height="30" as="geometry" />
        </mxCell>
        <mxCell id="kvSg3Rq4vL2DQ_oXKdCI-7" style="edgeStyle=orthogonalEdgeStyle;rounded=0;orthogonalLoop=1;jettySize=auto;html=1;entryX=0;entryY=0.5;entryDx=0;entryDy=0;" parent="1" source="kvSg3Rq4vL2DQ_oXKdCI-6" target="kvSg3Rq4vL2DQ_oXKdCI-1" edge="1">
          <mxGeometry relative="1" as="geometry" />
        </mxCell>
        <mxCell id="kvSg3Rq4vL2DQ_oXKdCI-6" value="Client2" style="rounded=0;whiteSpace=wrap;html=1;" parent="1" vertex="1">
          <mxGeometry x="60" y="330" width="130" height="50" as="geometry" />
        </mxCell>
        <mxCell id="kvSg3Rq4vL2DQ_oXKdCI-8" value="Join Game" style="text;html=1;align=center;verticalAlign=middle;resizable=0;points=[];autosize=1;strokeColor=none;fillColor=none;" parent="1" vertex="1">
          <mxGeometry x="230" y="318" width="80" height="30" as="geometry" />
        </mxCell>
        <mxCell id="kvSg3Rq4vL2DQ_oXKdCI-9" value="-create signalR Group&lt;div&gt;-add Connection 1 to group&lt;/div&gt;&lt;div&gt;-add Connection 2 to group&lt;/div&gt;" style="text;html=1;align=center;verticalAlign=middle;resizable=0;points=[];autosize=1;strokeColor=none;fillColor=none;" parent="1" vertex="1">
          <mxGeometry x="340" y="435" width="170" height="60" as="geometry" />
        </mxCell>
        <mxCell id="kvSg3Rq4vL2DQ_oXKdCI-10" value="Connection 1" style="text;html=1;align=center;verticalAlign=middle;resizable=0;points=[];autosize=1;strokeColor=none;fillColor=none;" parent="1" vertex="1">
          <mxGeometry x="550" y="360" width="90" height="30" as="geometry" />
        </mxCell>
        <mxCell id="kvSg3Rq4vL2DQ_oXKdCI-11" value="Connection 2" style="text;html=1;align=center;verticalAlign=middle;resizable=0;points=[];autosize=1;strokeColor=none;fillColor=none;" parent="1" vertex="1">
          <mxGeometry x="230" y="360" width="90" height="30" as="geometry" />
        </mxCell>
        <mxCell id="kvSg3Rq4vL2DQ_oXKdCI-12" value="SignalRHub/Server" style="ellipse;whiteSpace=wrap;html=1;aspect=fixed;" parent="1" vertex="1">
          <mxGeometry x="350" y="590" width="150" height="150" as="geometry" />
        </mxCell>
        <mxCell id="kvSg3Rq4vL2DQ_oXKdCI-14" value="Client1" style="rounded=0;whiteSpace=wrap;html=1;" parent="1" vertex="1">
          <mxGeometry x="580" y="640" width="130" height="50" as="geometry" />
        </mxCell>
        <mxCell id="kvSg3Rq4vL2DQ_oXKdCI-17" value="Client2" style="rounded=0;whiteSpace=wrap;html=1;" parent="1" vertex="1">
          <mxGeometry x="140" y="640" width="130" height="50" as="geometry" />
        </mxCell>
        <mxCell id="kvSg3Rq4vL2DQ_oXKdCI-21" value="" style="endArrow=classic;startArrow=classic;html=1;rounded=0;" parent="1" source="kvSg3Rq4vL2DQ_oXKdCI-12" target="kvSg3Rq4vL2DQ_oXKdCI-14" edge="1">
          <mxGeometry width="50" height="50" relative="1" as="geometry">
            <mxPoint x="560" y="720" as="sourcePoint" />
            <mxPoint x="610" y="670" as="targetPoint" />
          </mxGeometry>
        </mxCell>
        <mxCell id="kvSg3Rq4vL2DQ_oXKdCI-22" value="" style="endArrow=classic;startArrow=classic;html=1;rounded=0;exitX=1;exitY=0.5;exitDx=0;exitDy=0;" parent="1" source="kvSg3Rq4vL2DQ_oXKdCI-17" target="kvSg3Rq4vL2DQ_oXKdCI-12" edge="1">
          <mxGeometry width="50" height="50" relative="1" as="geometry">
            <mxPoint x="230" y="665" as="sourcePoint" />
            <mxPoint x="340" y="665" as="targetPoint" />
          </mxGeometry>
        </mxCell>
        <mxCell id="kvSg3Rq4vL2DQ_oXKdCI-24" style="edgeStyle=orthogonalEdgeStyle;rounded=0;orthogonalLoop=1;jettySize=auto;html=1;exitX=0.5;exitY=1;exitDx=0;exitDy=0;exitPerimeter=0;" parent="1" source="kvSg3Rq4vL2DQ_oXKdCI-23" target="kvSg3Rq4vL2DQ_oXKdCI-26" edge="1">
          <mxGeometry relative="1" as="geometry">
            <mxPoint x="425" y="910" as="targetPoint" />
          </mxGeometry>
        </mxCell>
        <mxCell id="kvSg3Rq4vL2DQ_oXKdCI-23" value="Group is full&lt;div&gt;(2 players)&lt;/div&gt;" style="strokeWidth=2;html=1;shape=mxgraph.flowchart.decision;whiteSpace=wrap;" parent="1" vertex="1">
          <mxGeometry x="375" y="760" width="101" height="90" as="geometry" />
        </mxCell>
        <mxCell id="kvSg3Rq4vL2DQ_oXKdCI-25" value="Yes" style="text;html=1;align=center;verticalAlign=middle;resizable=0;points=[];autosize=1;strokeColor=none;fillColor=none;" parent="1" vertex="1">
          <mxGeometry x="431" y="860" width="40" height="30" as="geometry" />
        </mxCell>
        <mxCell id="kvSg3Rq4vL2DQ_oXKdCI-30" style="edgeStyle=orthogonalEdgeStyle;rounded=0;orthogonalLoop=1;jettySize=auto;html=1;exitX=0.5;exitY=1;exitDx=0;exitDy=0;entryX=0.5;entryY=0;entryDx=0;entryDy=0;" parent="1" source="kvSg3Rq4vL2DQ_oXKdCI-26" target="kvSg3Rq4vL2DQ_oXKdCI-29" edge="1">
          <mxGeometry relative="1" as="geometry" />
        </mxCell>
        <mxCell id="kvSg3Rq4vL2DQ_oXKdCI-26" value="Create and initialize a game instance linked to the group" style="rounded=1;whiteSpace=wrap;html=1;absoluteArcSize=1;arcSize=14;strokeWidth=2;" parent="1" vertex="1">
          <mxGeometry x="383" y="900" width="85" height="80" as="geometry" />
        </mxCell>
        <mxCell id="kvSg3Rq4vL2DQ_oXKdCI-32" style="edgeStyle=orthogonalEdgeStyle;rounded=0;orthogonalLoop=1;jettySize=auto;html=1;entryX=0;entryY=0.5;entryDx=0;entryDy=0;" parent="1" source="kvSg3Rq4vL2DQ_oXKdCI-29" target="kvSg3Rq4vL2DQ_oXKdCI-31" edge="1">
          <mxGeometry relative="1" as="geometry" />
        </mxCell>
        <mxCell id="kvSg3Rq4vL2DQ_oXKdCI-34" style="edgeStyle=orthogonalEdgeStyle;rounded=0;orthogonalLoop=1;jettySize=auto;html=1;exitX=0;exitY=0.5;exitDx=0;exitDy=0;entryX=1;entryY=0.5;entryDx=0;entryDy=0;" parent="1" source="kvSg3Rq4vL2DQ_oXKdCI-29" target="kvSg3Rq4vL2DQ_oXKdCI-33" edge="1">
          <mxGeometry relative="1" as="geometry" />
        </mxCell>
        <mxCell id="kvSg3Rq4vL2DQ_oXKdCI-29" value="Send to Group:&lt;div&gt;-game started()&lt;/div&gt;" style="rounded=1;whiteSpace=wrap;html=1;absoluteArcSize=1;arcSize=14;strokeWidth=2;" parent="1" vertex="1">
          <mxGeometry x="383" y="1010" width="87" height="80" as="geometry" />
        </mxCell>
        <mxCell id="kvSg3Rq4vL2DQ_oXKdCI-31" value="&lt;font style=&quot;font-size: 11px;&quot;&gt;Send to Clinet1:&lt;/font&gt;&lt;div&gt;setColor (black/white)&lt;/div&gt;" style="rounded=1;whiteSpace=wrap;html=1;absoluteArcSize=1;arcSize=14;strokeWidth=2;" parent="1" vertex="1">
          <mxGeometry x="520" y="1010" width="85" height="80" as="geometry" />
        </mxCell>
        <mxCell id="kvSg3Rq4vL2DQ_oXKdCI-33" value="&lt;font style=&quot;font-size: 11px;&quot;&gt;Send to Clinet2:&lt;/font&gt;&lt;div&gt;setColor (white/white)&lt;/div&gt;" style="rounded=1;whiteSpace=wrap;html=1;absoluteArcSize=1;arcSize=14;strokeWidth=2;" parent="1" vertex="1">
          <mxGeometry x="235" y="1010" width="85" height="80" as="geometry" />
        </mxCell>
        <mxCell id="kvSg3Rq4vL2DQ_oXKdCI-35" value="SignalRHub/Server" style="ellipse;whiteSpace=wrap;html=1;aspect=fixed;" parent="1" vertex="1">
          <mxGeometry x="351.5" y="1140" width="150" height="150" as="geometry" />
        </mxCell>
        <mxCell id="kvSg3Rq4vL2DQ_oXKdCI-40" style="edgeStyle=orthogonalEdgeStyle;rounded=0;orthogonalLoop=1;jettySize=auto;html=1;exitX=0;exitY=0.5;exitDx=0;exitDy=0;entryX=1;entryY=0.5;entryDx=0;entryDy=0;" parent="1" source="kvSg3Rq4vL2DQ_oXKdCI-36" target="kvSg3Rq4vL2DQ_oXKdCI-35" edge="1">
          <mxGeometry relative="1" as="geometry" />
        </mxCell>
        <mxCell id="kvSg3Rq4vL2DQ_oXKdCI-36" value="Client1" style="rounded=0;whiteSpace=wrap;html=1;" parent="1" vertex="1">
          <mxGeometry x="710" y="1190" width="130" height="50" as="geometry" />
        </mxCell>
        <mxCell id="kvSg3Rq4vL2DQ_oXKdCI-37" value="Client2" style="rounded=0;whiteSpace=wrap;html=1;" parent="1" vertex="1">
          <mxGeometry x="141.5" y="1190" width="130" height="50" as="geometry" />
        </mxCell>
        <mxCell id="kvSg3Rq4vL2DQ_oXKdCI-39" value="" style="endArrow=classic;startArrow=classic;html=1;rounded=0;exitX=1;exitY=0.5;exitDx=0;exitDy=0;" parent="1" source="kvSg3Rq4vL2DQ_oXKdCI-37" target="kvSg3Rq4vL2DQ_oXKdCI-35" edge="1">
          <mxGeometry width="50" height="50" relative="1" as="geometry">
            <mxPoint x="231.5" y="1215" as="sourcePoint" />
            <mxPoint x="341.5" y="1215" as="targetPoint" />
          </mxGeometry>
        </mxCell>
        <mxCell id="kvSg3Rq4vL2DQ_oXKdCI-41" value="make move(&lt;div&gt;&lt;span style=&quot;white-space: pre;&quot;&gt;&#x9;&lt;/span&gt;to,&amp;nbsp;&lt;/div&gt;&lt;div&gt;&lt;span style=&quot;white-space: pre;&quot;&gt;&#x9;&lt;/span&gt;from,&amp;nbsp;&lt;/div&gt;&lt;div&gt;&lt;span style=&quot;white-space: pre;&quot;&gt;&#x9;&lt;/span&gt;promotion?)&lt;/div&gt;" style="text;html=1;align=left;verticalAlign=middle;resizable=0;points=[];autosize=1;strokeColor=none;fillColor=none;" parent="1" vertex="1">
          <mxGeometry x="510" y="1140" width="110" height="70" as="geometry" />
        </mxCell>
        <mxCell id="kvSg3Rq4vL2DQ_oXKdCI-43" style="edgeStyle=orthogonalEdgeStyle;rounded=0;orthogonalLoop=1;jettySize=auto;html=1;entryX=0;entryY=0.5;entryDx=0;entryDy=0;" parent="1" source="kvSg3Rq4vL2DQ_oXKdCI-42" target="kvSg3Rq4vL2DQ_oXKdCI-44" edge="1">
          <mxGeometry relative="1" as="geometry">
            <mxPoint x="559.9999999999998" y="1354.9999999999998" as="targetPoint" />
          </mxGeometry>
        </mxCell>
        <mxCell id="kvSg3Rq4vL2DQ_oXKdCI-50" style="edgeStyle=orthogonalEdgeStyle;rounded=0;orthogonalLoop=1;jettySize=auto;html=1;" parent="1" source="kvSg3Rq4vL2DQ_oXKdCI-42" target="kvSg3Rq4vL2DQ_oXKdCI-57" edge="1">
          <mxGeometry relative="1" as="geometry">
            <mxPoint x="425.25" y="1510" as="targetPoint" />
          </mxGeometry>
        </mxCell>
        <mxCell id="kvSg3Rq4vL2DQ_oXKdCI-55" style="edgeStyle=orthogonalEdgeStyle;rounded=0;orthogonalLoop=1;jettySize=auto;html=1;exitX=0.5;exitY=1;exitDx=0;exitDy=0;entryX=0;entryY=0.5;entryDx=0;entryDy=0;" parent="1" source="kvSg3Rq4vL2DQ_oXKdCI-42" target="kvSg3Rq4vL2DQ_oXKdCI-52" edge="1">
          <mxGeometry relative="1" as="geometry" />
        </mxCell>
        <mxCell id="kvSg3Rq4vL2DQ_oXKdCI-42" value="is move valid" style="rhombus;whiteSpace=wrap;html=1;" parent="1" vertex="1">
          <mxGeometry x="383" y="1310" width="84.5" height="90" as="geometry" />
        </mxCell>
        <mxCell id="kvSg3Rq4vL2DQ_oXKdCI-49" style="edgeStyle=orthogonalEdgeStyle;rounded=0;orthogonalLoop=1;jettySize=auto;html=1;exitX=1;exitY=0.5;exitDx=0;exitDy=0;" parent="1" source="kvSg3Rq4vL2DQ_oXKdCI-44" target="kvSg3Rq4vL2DQ_oXKdCI-48" edge="1">
          <mxGeometry relative="1" as="geometry" />
        </mxCell>
        <mxCell id="kvSg3Rq4vL2DQ_oXKdCI-44" value="&lt;span style=&quot;font-size: 11px;&quot;&gt;Respond to client:&lt;/span&gt;&lt;div&gt;&lt;span style=&quot;font-size: 11px;&quot;&gt;false(move not accepted)&lt;/span&gt;&lt;/div&gt;" style="rounded=1;whiteSpace=wrap;html=1;absoluteArcSize=1;arcSize=14;strokeWidth=2;" parent="1" vertex="1">
          <mxGeometry x="550" y="1312.5" width="100" height="85" as="geometry" />
        </mxCell>
        <mxCell id="kvSg3Rq4vL2DQ_oXKdCI-45" value="no" style="text;html=1;align=center;verticalAlign=middle;resizable=0;points=[];autosize=1;strokeColor=none;fillColor=none;" parent="1" vertex="1">
          <mxGeometry x="480" y="1320" width="40" height="30" as="geometry" />
        </mxCell>
        <mxCell id="kvSg3Rq4vL2DQ_oXKdCI-46" value="" style="endArrow=none;dashed=1;html=1;dashPattern=1 3;strokeWidth=2;rounded=0;exitX=1;exitY=0.5;exitDx=0;exitDy=0;" parent="1" edge="1">
          <mxGeometry width="50" height="50" relative="1" as="geometry">
            <mxPoint x="679.9999999999998" y="1139.9999999999998" as="sourcePoint" />
            <mxPoint x="680" y="1650" as="targetPoint" />
          </mxGeometry>
        </mxCell>
        <mxCell id="kvSg3Rq4vL2DQ_oXKdCI-48" value="&lt;span style=&quot;font-size: 11px;&quot;&gt;Revert move on the ui. Wait for input&lt;/span&gt;" style="rounded=1;whiteSpace=wrap;html=1;absoluteArcSize=1;arcSize=14;strokeWidth=2;" parent="1" vertex="1">
          <mxGeometry x="725" y="1312.5" width="100" height="85" as="geometry" />
        </mxCell>
        <mxCell id="kvSg3Rq4vL2DQ_oXKdCI-51" value="yes" style="text;html=1;align=center;verticalAlign=middle;resizable=0;points=[];autosize=1;strokeColor=none;fillColor=none;" parent="1" vertex="1">
          <mxGeometry x="431" y="1410" width="40" height="30" as="geometry" />
        </mxCell>
        <mxCell id="kvSg3Rq4vL2DQ_oXKdCI-54" style="edgeStyle=orthogonalEdgeStyle;rounded=0;orthogonalLoop=1;jettySize=auto;html=1;entryX=0;entryY=0.5;entryDx=0;entryDy=0;" parent="1" source="kvSg3Rq4vL2DQ_oXKdCI-52" target="kvSg3Rq4vL2DQ_oXKdCI-53" edge="1">
          <mxGeometry relative="1" as="geometry" />
        </mxCell>
        <mxCell id="kvSg3Rq4vL2DQ_oXKdCI-52" value="&lt;span style=&quot;font-size: 11px;&quot;&gt;Respond to client:&lt;/span&gt;&lt;div&gt;&lt;span style=&quot;font-size: 11px;&quot;&gt;true(move accepted)&lt;/span&gt;&lt;/div&gt;" style="rounded=1;whiteSpace=wrap;html=1;absoluteArcSize=1;arcSize=14;strokeWidth=2;" parent="1" vertex="1">
          <mxGeometry x="545" y="1440" width="100" height="85" as="geometry" />
        </mxCell>
        <mxCell id="kvSg3Rq4vL2DQ_oXKdCI-53" value="&lt;span style=&quot;font-size: 11px;&quot;&gt;No updates necesarry&lt;/span&gt;" style="rounded=1;whiteSpace=wrap;html=1;absoluteArcSize=1;arcSize=14;strokeWidth=2;" parent="1" vertex="1">
          <mxGeometry x="725" y="1440" width="100" height="85" as="geometry" />
        </mxCell>
        <mxCell id="kvSg3Rq4vL2DQ_oXKdCI-56" value="" style="endArrow=none;dashed=1;html=1;dashPattern=1 3;strokeWidth=2;rounded=0;exitX=1;exitY=0.5;exitDx=0;exitDy=0;" parent="1" edge="1">
          <mxGeometry width="50" height="50" relative="1" as="geometry">
            <mxPoint x="309.9999999999998" y="1129.9999999999998" as="sourcePoint" />
            <mxPoint x="310" y="1640" as="targetPoint" />
          </mxGeometry>
        </mxCell>
        <mxCell id="kvSg3Rq4vL2DQ_oXKdCI-60" style="edgeStyle=orthogonalEdgeStyle;rounded=0;orthogonalLoop=1;jettySize=auto;html=1;" parent="1" source="kvSg3Rq4vL2DQ_oXKdCI-57" target="kvSg3Rq4vL2DQ_oXKdCI-59" edge="1">
          <mxGeometry relative="1" as="geometry" />
        </mxCell>
        <mxCell id="kvSg3Rq4vL2DQ_oXKdCI-62" style="edgeStyle=orthogonalEdgeStyle;rounded=0;orthogonalLoop=1;jettySize=auto;html=1;exitX=0;exitY=0.5;exitDx=0;exitDy=0;" parent="1" source="kvSg3Rq4vL2DQ_oXKdCI-57" target="kvSg3Rq4vL2DQ_oXKdCI-61" edge="1">
          <mxGeometry relative="1" as="geometry" />
        </mxCell>
        <mxCell id="kvSg3Rq4vL2DQ_oXKdCI-57" value="&lt;span&gt;Send to group:&lt;/span&gt;&lt;div&gt;&lt;span&gt;updateBoard(tza board)&lt;/span&gt;&lt;/div&gt;" style="rounded=1;whiteSpace=wrap;html=1;absoluteArcSize=1;arcSize=14;strokeWidth=2;fontSize=11;" parent="1" vertex="1">
          <mxGeometry x="375" y="1530" width="100" height="85" as="geometry" />
        </mxCell>
        <mxCell id="kvSg3Rq4vL2DQ_oXKdCI-59" value="&lt;span style=&quot;font-size: 11px;&quot;&gt;Update ui&lt;/span&gt;" style="rounded=1;whiteSpace=wrap;html=1;absoluteArcSize=1;arcSize=14;strokeWidth=2;" parent="1" vertex="1">
          <mxGeometry x="725" y="1530" width="100" height="85" as="geometry" />
        </mxCell>
        <mxCell id="kvSg3Rq4vL2DQ_oXKdCI-61" value="&lt;span style=&quot;font-size: 11px;&quot;&gt;Update ui&lt;/span&gt;" style="rounded=1;whiteSpace=wrap;html=1;absoluteArcSize=1;arcSize=14;strokeWidth=2;" parent="1" vertex="1">
          <mxGeometry x="156.5" y="1530" width="100" height="85" as="geometry" />
        </mxCell>
      </root>
    </mxGraphModel>
  </diagram>
</mxfile>
